<svg xmlns="http://www.w3.org/2000/svg" version="1.1" xmlns:xlink="http://www.w3.org/1999/xlink" xmlns:svgjs="http://svgjs.com/svgjs" width="70" height="56"><svg width="70" height="56" viewBox="0 0 70 56" fill="none" xmlns="http://www.w3.org/2000/svg">
<path d="M22.752 38.5C35.3196 38.5 45.5027 29.8812 45.5027 19.25C45.5027 8.61875 35.3196 0 22.752 0C10.1844 0 0.00119709 8.61875 0.00119709 19.25C0.00119709 23.4719 1.60906 27.3766 4.33259 30.5594C3.94977 31.5875 3.381 32.4953 2.77942 33.2609C2.2544 33.9391 1.71844 34.4641 1.32468 34.825C1.1278 35 0.96373 35.1422 0.854351 35.2297C0.799662 35.2734 0.75591 35.3062 0.734034 35.3172L0.712159 35.3391C0.110576 35.7875 -0.151933 36.575 0.0887001 37.2859C0.329333 37.9969 0.996543 38.5 1.75126 38.5C4.13571 38.5 6.54204 37.8875 8.54367 37.1328C9.54996 36.75 10.4906 36.3234 11.311 35.8859C14.6689 37.5484 18.5737 38.5 22.752 38.5ZM49.0029 19.25C49.0029 31.5328 38.1634 40.7859 25.3224 41.8906C27.9803 50.0281 36.7962 56 47.2528 56C51.4311 56 55.3359 55.0484 58.7047 53.3859C59.5251 53.8234 60.4548 54.25 61.4611 54.6328C63.4627 55.3875 65.869 56 68.2535 56C69.0082 56 69.6864 55.5078 69.9161 54.7859C70.1458 54.0641 69.8942 53.2766 69.2817 52.8281L69.2598 52.8062C69.2379 52.7844 69.1942 52.7625 69.1395 52.7188C69.0301 52.6312 68.866 52.5 68.6691 52.3141C68.2754 51.9531 67.7394 51.4281 67.2144 50.75C66.6128 49.9844 66.0441 49.0656 65.6612 48.0484C68.3848 44.8766 69.9926 40.9719 69.9926 36.7391C69.9926 26.5891 60.7064 18.2656 48.9263 17.5437C48.97 18.1016 48.9919 18.6703 48.9919 19.2391L49.0029 19.25Z" fill="#00FF00"></path>
</svg><style>@media (prefers-color-scheme: light) { :root { filter: none; } }
@media (prefers-color-scheme: dark) { :root { filter: none; } }
</style></svg>